<svg xmlns="http://www.w3.org/2000/svg" viewBox="0 0 252.89 198.24"><defs><style>.cls-1{fill:#2fac66;}</style></defs><g id="Camada_2" data-name="Camada 2"><g id="Camada_1-2" data-name="Camada 1"><path class="cls-1" d="M207,109.94a.84.84,0,0,1-.06-.66.81.81,0,0,1,.42-.5L236.58,94h0a.81.81,0,0,1,1.08.36l13.52,25a14.17,14.17,0,0,1-.31,14h0l0,0a14.38,14.38,0,0,1-12.13,6.86h-15.4Zm20.14,63.2a14.21,14.21,0,0,1-12.35,7H195.82v8.51a.29.29,0,0,1-.2.07h0c-.05,0-.06,0-.11-.06l-19.85-25.71h0a.26.26,0,0,1,0-.07l19.79-25.65a.17.17,0,0,1,.16-.08.27.27,0,0,1,.21.09.06.06,0,0,1,0,0l0,8.44h42.92a19,19,0,0,0,5.19-.73l-.65,1.08-.07.13h0Z"/><path class="cls-1" d="M207,35.73l9.85,16.56,7.26-4.35s0,0,0,0a.38.38,0,0,1,.17.14c0,.05,0,.08,0,.16l-11.9,30.15a.12.12,0,0,1,0,0h-.07l-32.16-3.85a.16.16,0,0,1-.14-.09.34.34,0,0,1,0-.22h0l7.28-4.33L165.16,32.8a19,19,0,0,0-3.28-4.08h32.76A14.32,14.32,0,0,1,207,35.73ZM121.56,60l14.55-24.42a14.25,14.25,0,0,1,12.17-6.9h0a14.41,14.41,0,0,1,12.15,6.9l.8,1.34h0l7.09,11.89L150.68,78.42a.79.79,0,0,1-.51.37.72.72,0,0,1-.6-.1L121.81,61.16A.82.82,0,0,1,121.56,60Z"/><path class="cls-1" d="M85.15,62.91h2.27A10.54,10.54,0,0,1,98,73.45v62.34c0,26.48-16.28,40.13-44.9,40.13-26.49,0-43.1-12.5-43.1-38.82V32A10.54,10.54,0,0,1,20.5,21.43h2.11A10.54,10.54,0,0,1,33.15,32V135c0,13.49,7.24,22,19.58,22,14.64,0,21.88-6.91,21.88-21.22V73.45A10.54,10.54,0,0,1,85.15,62.91Z"/><path class="cls-1" d="M104,196V97.82a2.28,2.28,0,0,1,2.28-2.28h13.18a2.28,2.28,0,0,1,2.28,2.24h0a2.27,2.27,0,0,0,3.85,1.6c4.08-3.87,9.32-5.68,15.66-5.68,17.57,0,30.18,13.88,30.18,37.39,0,21.11-10.63,36-28.62,36A23.49,23.49,0,0,1,126,160.59a2.27,2.27,0,0,0-3.81,1.69V196a2.28,2.28,0,0,1-2.28,2.28H106.3A2.28,2.28,0,0,1,104,196Zm48.73-66.14c0-12.47-6.52-21.11-15.73-21.11-8.78,0-15.58,8.22-15.58,20,0,15.15,5.24,22.66,15.44,22.66C147.65,151.35,152.75,144.13,152.75,129.82Z"/><path class="cls-1" d="M22,39.17H3.88A3.88,3.88,0,0,1,.52,33.36L9.6,17.65,18.67,1.94a3.87,3.87,0,0,1,6.71,0l9.07,15.71,9.07,15.71a3.88,3.88,0,0,1-3.36,5.81Z"/></g></g></svg>