<svg xmlns="http://www.w3.org/2000/svg" viewBox="0 0 96.52 111.61"><defs><style>.cls-1{fill:#2fac66;}</style></defs><g id="Camada_2" data-name="Camada 2"><g id="Camada_1-2" data-name="Camada 1"><path class="cls-1" d="M47.94,35.42h1.28a5.93,5.93,0,0,1,5.93,5.93v35.1C55.15,91.36,46,99,29.87,99,15,99,5.61,92,5.61,77.19V18a5.93,5.93,0,0,1,5.93-5.94h1.19A5.93,5.93,0,0,1,18.66,18V76c0,7.6,4.08,12.41,11,12.41C37.93,88.39,42,84.5,42,76.45V41.35A5.94,5.94,0,0,1,47.94,35.42Z"/><path class="cls-1" d="M58.56,110.32V55.07a1.28,1.28,0,0,1,1.29-1.28h7.42a1.28,1.28,0,0,1,1.28,1.26h0a1.28,1.28,0,0,0,2.17.9,12.24,12.24,0,0,1,8.82-3.2c9.89,0,17,7.82,17,21.06,0,11.88-6,20.25-16.11,20.25a13.19,13.19,0,0,1-9.49-3.65,1.29,1.29,0,0,0-2.15,1v19a1.28,1.28,0,0,1-1.28,1.29H59.85A1.29,1.29,0,0,1,58.56,110.32ZM86,73.09c0-7-3.67-11.88-8.86-11.88-4.94,0-8.77,4.62-8.77,11.24,0,8.53,2.95,12.76,8.69,12.76C83.13,85.21,86,81.14,86,73.09Z"/><path class="cls-1" d="M12.4,22.05H2.18A2.18,2.18,0,0,1,.3,18.78L5.4,9.94l5.11-8.85a2.19,2.19,0,0,1,3.78,0l5.1,8.85,5.11,8.84a2.18,2.18,0,0,1-1.89,3.27Z"/></g></g></svg>