<svg xmlns="http://www.w3.org/2000/svg" viewBox="0 0 445.16 486.99"><defs><style>.cls-1{fill:#2fac66;}.cls-2{fill:#203328;}</style></defs><g id="Camada_2" data-name="Camada 2"><g id="Camada_1-2" data-name="Camada 1"><path class="cls-1" d="M364.46,175.55a1.53,1.53,0,0,1-.1-1.16,1.43,1.43,0,0,1,.73-.87l51.4-26,0,0a1.43,1.43,0,0,1,1.9.63l23.77,43.95a24.93,24.93,0,0,1-.55,24.55h0l0,.07a25.29,25.29,0,0,1-21.32,12.07H393.21Zm35.4,111.06a25,25,0,0,1-21.71,12.31l-33.28,0v15a.52.52,0,0,1-.35.13h0c-.09,0-.12,0-.19-.11l-34.88-45.18,0,0a.28.28,0,0,1,.06-.12l34.77-45.07a.29.29,0,0,1,.28-.15.58.58,0,0,1,.37.15.28.28,0,0,1,0,.08l-.07,14.83h4.86l70.57,0a33.35,33.35,0,0,0,9.11-1.28l-1.13,1.9-.14.22h0Z"/><path class="cls-1" d="M364.53,45.15l17.31,29.1,12.76-7.66.07,0a.54.54,0,0,1,.3.24c0,.09.06.13,0,.28l-20.91,53a.41.41,0,0,1,0,.09h-.12l-56.52-6.77a.26.26,0,0,1-.24-.14.66.66,0,0,1-.08-.4l0,0,12.79-7.6L291,40a33.38,33.38,0,0,0-5.77-7.19H342.8A25.18,25.18,0,0,1,364.53,45.15ZM214.38,87.87,240,45a25,25,0,0,1,21.37-12.14h0A25.3,25.3,0,0,1,282.68,45l1.41,2.37h0c2.51,4.21,8,13.41,12.46,20.88l-31,52a1.43,1.43,0,0,1-.91.65,1.33,1.33,0,0,1-1.05-.18L214.81,89.83A1.44,1.44,0,0,1,214.38,87.87Z"/><path class="cls-2" d="M97.6,413.41a6,6,0,0,1,5.64,7.88c-5.32,16-20.27,26.31-38.7,26.31-24,0-40.45-15.93-40.45-47.43s16.47-45.29,41.17-45.29c20.1,0,34.54,10.05,38.76,26.53a5.92,5.92,0,0,1-5.79,7.3H86.45a5.94,5.94,0,0,1-5.64-3.85c-2.37-6.77-8.27-10.65-15.73-10.65-9.84,0-17.9,6.27-17.9,25.42s8.06,28.46,17.19,28.46c7.76,0,14.09-3.75,16.37-10.7a6,6,0,0,1,5.72-4Z"/><path class="cls-2" d="M167.84,448a6,6,0,0,0-8.81-5.21,32.51,32.51,0,0,1-15,3.42c-18.44,0-32.22-12.53-32.22-31.86V363.15a6,6,0,0,1,5.94-5.95h11.38a6,6,0,0,1,6,5.95v47.76c0,10.92,5,16.47,14.85,16.47,10.57,0,17.91-7,17.91-16.47V363.15a6,6,0,0,1,5.94-5.95h11.38a6,6,0,0,1,6,5.95V447.6c0,24.89-17.9,39.39-40.46,39.39-23.11,0-36-11.38-38.43-30.12a6,6,0,0,1,5.91-6.76h10a5.87,5.87,0,0,1,5.78,4.57c1.61,7.67,7.55,12.26,17.81,12.26,8.42,0,16.12-7.34,16.12-19Z"/><path class="cls-2" d="M273.58,413.41a6,6,0,0,1,5.63,7.88c-5.32,16-20.26,26.31-38.69,26.31-24,0-40.46-15.93-40.46-47.43s16.47-45.29,41.18-45.29c20.09,0,34.54,10.05,38.76,26.53a5.92,5.92,0,0,1-5.8,7.3H262.42a5.92,5.92,0,0,1-5.63-3.85c-2.37-6.77-8.28-10.65-15.73-10.65-9.85,0-17.9,6.27-17.9,25.42s8.05,28.46,17.18,28.46c7.76,0,14.1-3.75,16.37-10.7a6,6,0,0,1,5.72-4Z"/><path class="cls-2" d="M287.78,439.33V330.93a6,6,0,0,1,6-5.95H305.1a6,6,0,0,1,5.95,5.95v108.4a6,6,0,0,1-5.95,5.95H293.73A6,6,0,0,1,287.78,439.33Z"/><path class="cls-2" d="M349.21,407.33a5.92,5.92,0,0,0-5.73,7.54c2.7,8.87,9.31,14.3,18.41,14.3,6.27,0,11.91-2.61,14.55-7a6.16,6.16,0,0,1,5.3-2.84h11a5.93,5.93,0,0,1,5.26,8.73c-6.94,12.6-19.53,19.55-35,19.55-29.36,0-44-16.11-44-48,0-27.21,15.57-44.75,42.6-44.75,25.35,0,39.52,15.42,41.19,46.13a6,6,0,0,1-5.94,6.32Zm22.61-14.68a6,6,0,0,0,5.58-8,17.21,17.21,0,0,0-16.58-11.3c-7,0-13.1,4.06-16.07,11.26a5.92,5.92,0,0,0,5.56,8.08Z"/><path class="cls-1" d="M149.63,110.56h4a18.52,18.52,0,0,1,18.52,18.52V238.61c0,46.54-28.62,70.54-78.91,70.54-46.54,0-75.74-22-75.74-68.22V56.17A18.52,18.52,0,0,1,36,37.65h3.72A18.52,18.52,0,0,1,58.26,56.17v181c0,23.7,12.72,38.73,34.4,38.73,25.72,0,38.44-12.14,38.44-37.29V129.08A18.53,18.53,0,0,1,149.63,110.56Z"/><path class="cls-1" d="M182.79,344.35V171.9a4,4,0,0,1,4-4H210a4,4,0,0,1,4,3.94h0a4,4,0,0,0,6.77,2.81c7.16-6.79,16.37-10,27.52-10,30.87,0,53,24.4,53,65.72,0,37.09-18.67,63.23-50.28,63.23-11.75,0-21.55-3.72-29.65-11.4a4,4,0,0,0-6.7,3v59.18a4,4,0,0,1-4,4H186.8A4,4,0,0,1,182.79,344.35Zm85.63-116.22c0-21.91-11.45-37.09-27.63-37.09-15.43,0-27.38,14.44-27.38,35.1,0,26.63,9.21,39.83,27.13,39.83C259.46,266,268.42,253.27,268.42,228.13Z"/><path class="cls-1" d="M38.7,68.83H6.82A6.81,6.81,0,0,1,.92,58.62L16.86,31,32.8,3.4a6.81,6.81,0,0,1,11.79,0L60.53,31,76.47,58.62a6.8,6.8,0,0,1-5.89,10.21Z"/></g></g></svg>