<svg xmlns="http://www.w3.org/2000/svg" viewBox="0 0 677.22 511.49"><defs><style>.cls-1{fill:#2fac66;}.cls-2{fill:#203328;}</style></defs><g id="Camada_2" data-name="Camada 2"><g id="Camada_1-2" data-name="Camada 1"><path class="cls-1" d="M546.41,287.1a2.46,2.46,0,0,1-.17-1.89,2.32,2.32,0,0,1,1.18-1.4l83.33-42.19,0,0a2.35,2.35,0,0,1,3.1,1l38.52,71.24a40.41,40.41,0,0,1-.89,39.79h0l-.07.11a41,41,0,0,1-34.56,19.56H593Zm57.38,180a40.54,40.54,0,0,1-35.19,19.95l-54,0v24.1a1.13,1.13,0,0,1,0,.14.87.87,0,0,1-.55.19h0c-.15,0-.19,0-.31-.17l-56.55-73.23,0,0a.45.45,0,0,1,.09-.19l56.36-73.06a.47.47,0,0,1,.47-.24.83.83,0,0,1,.59.24.32.32,0,0,1,0,.13l-.12,24h7.88l114.4,0a54.46,54.46,0,0,0,14.76-2.07L649.82,390l-.21.36h0Z"/><path class="cls-1" d="M546.51,75.72l28.06,47.16,20.69-12.4a.28.28,0,0,1,.12-.06.85.85,0,0,1,.48.39c.09.14.1.21,0,.45L562,197.14a.64.64,0,0,1-.07.15.51.51,0,0,1-.19,0l-91.62-11a.42.42,0,0,1-.39-.24,1.08,1.08,0,0,1-.14-.64l.06,0,20.73-12.31-63-105.74A54.18,54.18,0,0,0,418,55.73h93.34A40.76,40.76,0,0,1,546.51,75.72ZM303.12,145,344.56,75.4a40.6,40.6,0,0,1,34.65-19.67h0a41,41,0,0,1,34.62,19.66l2.28,3.83h0l20.2,33.85-50.27,84.25a2.34,2.34,0,0,1-1.46,1.06,2.16,2.16,0,0,1-1.71-.29l-79.07-49.94A2.32,2.32,0,0,1,303.12,145Z"/><path class="cls-2" d="M108.63,347.61A7.78,7.78,0,0,1,116,357.88c-6.93,20.86-26.42,34.31-50.45,34.31-31.28,0-52.75-20.77-52.75-61.85s21.47-59.06,53.69-59.06c26.2,0,45,13.11,50.54,34.6a7.72,7.72,0,0,1-7.56,9.52H94.08a7.73,7.73,0,0,1-7.35-5c-3.09-8.83-10.79-13.89-20.51-13.89-12.84,0-23.34,8.17-23.34,33.15s10.5,37.11,22.41,37.11c10.12,0,18.38-4.89,21.35-14a7.77,7.77,0,0,1,7.46-5.18Z"/><path class="cls-2" d="M200.21,392.66a7.77,7.77,0,0,0-11.49-6.79,42.43,42.43,0,0,1-19.56,4.46c-24,0-42-16.34-42-41.55V282.07a7.75,7.75,0,0,1,7.75-7.75h14.84a7.75,7.75,0,0,1,7.75,7.75v62.27c0,14.24,6.54,21.48,19.37,21.48,13.78,0,23.35-9.11,23.35-21.48V282.07a7.75,7.75,0,0,1,7.75-7.75h14.83a7.75,7.75,0,0,1,7.76,7.75V392.19c0,32.45-23.34,51.35-52.75,51.35-30.14,0-47-14.82-50.11-39.26a7.79,7.79,0,0,1,7.7-8.82h13a7.65,7.65,0,0,1,7.54,6c2.1,10,9.84,16,23.23,16,11,0,21-9.57,21-24.74Z"/><path class="cls-2" d="M338.08,347.61a7.78,7.78,0,0,1,7.35,10.27C338.5,378.74,319,392.19,295,392.19c-31.28,0-52.75-20.77-52.75-61.85s21.47-59.06,53.68-59.06c26.21,0,45,13.11,50.55,34.6a7.72,7.72,0,0,1-7.56,9.52H323.54a7.73,7.73,0,0,1-7.35-5c-3.09-8.83-10.79-13.89-20.51-13.89-12.84,0-23.34,8.17-23.34,33.15s10.5,37.11,22.41,37.11c10.11,0,18.38-4.89,21.35-14a7.77,7.77,0,0,1,7.45-5.18Z"/><path class="cls-2" d="M356.61,381.4V240.06a7.76,7.76,0,0,1,7.75-7.76h14.83a7.76,7.76,0,0,1,7.76,7.76V381.4a7.75,7.75,0,0,1-7.76,7.76H364.36A7.75,7.75,0,0,1,356.61,381.4Z"/><path class="cls-2" d="M436.71,339.67a7.73,7.73,0,0,0-7.48,9.85c3.52,11.56,12.14,18.63,24,18.63,8.17,0,15.53-3.4,19-9.13a8,8,0,0,1,6.91-3.71h14.36a7.74,7.74,0,0,1,6.86,11.39c-9,16.43-25.46,25.49-45.7,25.49-38.28,0-57.42-21-57.42-62.55,0-35.48,20.31-58.36,55.56-58.36,33.05,0,51.52,20.12,53.7,60.16a7.78,7.78,0,0,1-7.75,8.23Zm29.48-19.14a7.76,7.76,0,0,0,7.28-10.48c-3.78-9.92-12.5-14.72-21.63-14.72s-17.08,5.29-20.95,14.67a7.72,7.72,0,0,0,7.25,10.53Z"/><path class="cls-1" d="M109.17,80.66h2.92A13.51,13.51,0,0,1,125.6,94.18V174.1c0,34-20.88,51.46-57.57,51.46-34,0-55.26-16-55.26-49.78V41A13.51,13.51,0,0,1,26.28,27.47H29A13.52,13.52,0,0,1,42.51,41V173c0,17.3,9.28,28.26,25.1,28.26,18.77,0,28.05-8.85,28.05-27.2V94.18A13.51,13.51,0,0,1,109.17,80.66Z"/><path class="cls-1" d="M133.37,251.25V125.42a2.93,2.93,0,0,1,2.92-2.93H153.2a2.93,2.93,0,0,1,2.92,2.88h0a2.91,2.91,0,0,0,4.93,2c5.23-5,11.95-7.29,20.08-7.29,22.52,0,38.69,17.8,38.69,48,0,27.06-13.62,46.13-36.69,46.13-8.57,0-15.72-2.71-21.63-8.31a2.92,2.92,0,0,0-4.89,2.16v43.19a2.92,2.92,0,0,1-2.92,2.92h-17.4A2.92,2.92,0,0,1,133.37,251.25Zm62.48-84.8c0-16-8.36-27.06-20.17-27.06-11.26,0-20,10.53-20,25.6,0,19.44,6.72,29.06,19.79,29.06C189.31,194.05,195.85,184.79,195.85,166.45Z"/><path class="cls-1" d="M28.23,50.22H5a5,5,0,0,1-4.3-7.45L12.3,22.63,23.93,2.48a5,5,0,0,1,8.6,0L44.16,22.63,55.79,42.77a5,5,0,0,1-4.3,7.45Z"/></g></g></svg>