<?xml version="1.0" standalone="no"?>
<!DOCTYPE svg PUBLIC "-//W3C//DTD SVG 20010904//EN"
 "http://www.w3.org/TR/2001/REC-SVG-20010904/DTD/svg10.dtd">
<svg version="1.0" xmlns="http://www.w3.org/2000/svg"
 width="1012.000000pt" height="1012.000000pt" viewBox="0 0 1012.000000 1012.000000"
 preserveAspectRatio="xMidYMid meet">
<metadata>
Created by potrace 1.14, written by Peter Selinger 2001-2017
</metadata>
<g transform="translate(0.000000,1012.000000) scale(0.100000,-0.100000)"
fill="#000000" stroke="none">
<path d="M844 9014 c-35 -8 -78 -54 -121 -129 -23 -38 -53 -90 -67 -115 -15
-25 -29 -53 -33 -62 -3 -10 -8 -18 -12 -18 -4 0 -13 -16 -21 -35 -8 -19 -17
-35 -22 -35 -4 0 -8 -6 -8 -14 0 -8 -6 -21 -13 -28 -6 -7 -21 -31 -32 -53 -11
-22 -23 -42 -26 -45 -4 -3 -16 -25 -28 -48 -12 -24 -40 -73 -62 -108 -21 -35
-35 -64 -31 -64 4 0 2 -4 -4 -8 -6 -4 -71 -113 -146 -242 -75 -129 -145 -251
-157 -270 -54 -91 -62 -133 -36 -191 34 -80 83 -98 254 -96 75 1 125 -2 127
-8 2 -5 5 -937 7 -2070 2 -1133 6 -2076 10 -2095 3 -19 8 -51 11 -70 17 -138
82 -345 144 -465 41 -79 111 -188 124 -193 4 -2 8 -8 8 -13 0 -10 153 -166
200 -204 46 -38 118 -85 129 -85 6 0 11 -4 11 -9 0 -9 164 -92 235 -118 22 -8
49 -18 60 -23 46 -19 191 -55 197 -49 2 1 12 -3 24 -9 11 -6 38 -13 60 -16 21
-3 55 -8 74 -12 19 -3 53 -7 76 -8 23 -2 45 -5 50 -8 36 -19 548 -14 684 7 19
3 53 7 75 10 38 5 54 8 115 21 14 3 36 7 50 10 14 3 43 10 65 16 22 6 46 12
53 14 83 16 432 174 432 196 0 4 5 8 11 8 32 0 251 199 319 290 100 133 209
366 235 499 2 11 6 24 8 29 3 4 8 25 11 47 3 22 11 63 16 90 6 28 13 73 16
100 12 95 14 2787 2 2835 -40 165 -183 304 -339 327 -56 8 -181 8 -238 0 -118
-18 -265 -129 -306 -231 -6 -17 -16 -40 -20 -51 -4 -11 -10 -27 -13 -35 -3 -8
-6 -607 -7 -1330 -1 -723 -5 -1349 -9 -1390 -24 -288 -144 -500 -343 -607 -69
-37 -199 -83 -246 -87 -19 -2 -38 -5 -43 -8 -42 -21 -359 -17 -449 6 -68 17
-185 63 -195 77 -3 3 -20 14 -38 23 -51 26 -163 146 -207 221 -22 38 -40 72
-41 75 0 3 -6 19 -13 35 -18 41 -51 155 -45 155 3 0 1 8 -5 17 -5 10 -12 50
-17 88 -9 88 -13 3965 -3 3985 6 12 33 15 156 14 180 -2 219 11 253 83 30 64
23 105 -32 202 -26 46 -48 85 -48 86 0 2 -18 33 -40 69 -22 36 -40 70 -40 76
0 5 -4 10 -10 10 -5 0 -10 4 -10 9 0 6 -29 60 -65 121 -36 61 -76 130 -89 153
-13 23 -49 87 -81 142 -32 55 -63 109 -69 120 -6 11 -13 22 -16 25 -3 3 -11
16 -17 30 -7 14 -26 48 -42 75 -16 28 -36 61 -43 75 -70 128 -145 244 -170
261 -29 21 -92 32 -134 23z"/>
<path d="M5938 7874 c-2 -1 -25 -3 -53 -5 -27 -1 -68 -9 -90 -17 -22 -7 -48
-15 -59 -17 -19 -5 -119 -59 -143 -78 -49 -42 -101 -100 -134 -152 -21 -33
-43 -65 -49 -72 -5 -7 -10 -15 -10 -18 0 -6 -164 -284 -215 -365 -12 -19 -22
-37 -21 -40 0 -3 -18 -32 -40 -65 -22 -33 -45 -71 -52 -85 -7 -14 -21 -38 -32
-55 -11 -16 -30 -49 -42 -72 -12 -24 -26 -43 -30 -43 -4 0 -8 -6 -8 -13 0 -7
-11 -29 -24 -48 -14 -20 -37 -58 -51 -84 l-27 -48 26 -23 c14 -13 28 -24 31
-24 4 0 26 -13 50 -30 24 -16 48 -30 53 -30 6 0 12 -3 14 -7 3 -7 80 -61 103
-73 25 -12 111 -65 115 -70 3 -3 34 -24 70 -45 36 -21 67 -43 68 -47 2 -4 8
-8 13 -8 5 0 41 -21 81 -47 40 -26 81 -52 91 -58 9 -5 91 -57 182 -115 91 -58
174 -110 186 -116 11 -7 26 -17 32 -23 6 -6 21 -11 32 -11 17 0 40 31 108 146
48 80 87 150 87 155 0 5 5 9 10 9 6 0 10 7 10 15 0 8 5 15 10 15 6 0 10 9 10
20 0 11 4 20 9 20 5 0 16 15 26 33 9 17 22 41 28 52 7 11 32 54 56 95 24 41
58 99 77 127 19 29 34 55 34 58 0 5 9 20 86 140 17 28 35 60 38 73 4 12 11 22
15 22 5 0 15 15 22 33 7 17 25 50 39 72 15 22 36 56 48 75 23 40 27 28 -43
146 -22 37 -47 79 -55 93 -175 297 -231 381 -288 438 -81 81 -194 139 -309
157 -46 7 -84 12 -85 10z"/>
<path d="M6643 7872 c-84 -1 -153 -5 -153 -8 0 -3 10 -15 23 -27 40 -39 82
-99 168 -242 46 -77 89 -149 95 -160 6 -11 22 -39 37 -62 15 -24 27 -47 27
-53 0 -5 5 -10 10 -10 6 0 10 -4 10 -9 0 -5 17 -37 38 -71 20 -33 42 -69 47
-79 6 -11 17 -26 24 -35 7 -9 10 -16 7 -16 -4 0 6 -19 22 -42 49 -73 252 -417
252 -428 0 -5 4 -10 8 -10 5 0 16 -15 25 -32 9 -18 25 -46 35 -63 31 -53 86
-145 111 -188 13 -23 34 -57 47 -76 l23 -34 -67 -42 c-37 -22 -102 -61 -144
-86 -43 -24 -76 -48 -75 -53 3 -10 5 -11 97 -20 36 -3 76 -8 90 -10 14 -2 52
-7 85 -10 33 -3 69 -8 80 -10 11 -2 49 -7 85 -11 36 -3 79 -8 95 -10 17 -3 53
-7 80 -10 28 -3 61 -7 75 -9 14 -3 56 -7 94 -11 38 -3 72 -8 75 -9 3 -2 35 -7
71 -10 36 -3 83 -8 105 -11 52 -6 215 -25 238 -28 20 -2 23 5 88 178 17 43 36
93 43 110 8 16 46 111 84 210 39 99 76 194 83 210 7 17 13 32 14 35 4 11 18
47 30 75 20 49 80 200 81 205 0 3 4 14 9 25 35 87 62 161 59 164 -1 2 -56 -28
-121 -67 -190 -114 -173 -109 -201 -59 -13 23 -34 58 -45 77 -11 19 -26 47
-34 61 -7 15 -20 32 -28 39 -8 7 -15 18 -15 24 0 6 -18 39 -40 74 -22 34 -40
65 -40 67 0 2 -13 24 -30 48 -16 25 -30 50 -30 56 0 6 -5 11 -12 11 -6 0 -9 3
-5 6 3 4 -5 21 -18 39 -14 17 -25 35 -25 38 0 4 -20 39 -45 77 -46 72 -126
160 -145 160 -5 0 -10 4 -10 8 0 5 -12 15 -27 22 -16 8 -36 21 -47 30 -10 8
-19 13 -20 11 0 -2 -18 4 -38 12 -37 16 -71 24 -138 33 -40 6 -985 10 -1217 6z"/>
<path d="M5495 5260 c-4 -6 -10 -8 -14 -6 -4 3 -27 0 -52 -5 -24 -6 -51 -12
-59 -14 -50 -12 -171 -63 -181 -78 -3 -5 -10 -9 -15 -9 -9 -1 -54 -27 -64 -38
-25 -26 -101 -79 -125 -87 -50 -16 -98 22 -109 88 -10 64 -49 90 -128 86 -27
-2 -48 1 -48 6 0 4 -5 5 -11 2 -15 -10 -149 -12 -149 -3 0 4 -10 4 -22 0 -13
-4 -84 -7 -158 -6 l-135 1 -27 -28 c-26 -27 -28 -35 -29 -111 -4 -684 0 -3883
6 -3906 13 -59 29 -62 363 -62 l299 0 27 25 c14 13 27 30 27 37 1 7 2 326 3
709 1 641 3 697 19 722 20 30 70 43 107 28 14 -5 45 -28 70 -51 88 -81 322
-200 370 -188 3 1 14 -3 25 -9 58 -31 343 -33 468 -4 20 5 37 7 37 5 0 -3 14
2 30 11 17 9 30 13 30 10 0 -6 96 30 133 51 15 8 27 12 27 7 0 -4 4 -3 8 2 4
6 17 16 30 23 12 6 32 18 45 25 36 20 127 96 188 156 144 145 269 386 325 626
42 182 55 296 55 491 1 169 -7 272 -31 404 -6 30 -12 67 -14 82 -2 16 -8 40
-15 55 -6 16 -15 46 -20 68 -26 110 -100 273 -180 395 -48 73 -194 233 -256
280 -83 63 -289 166 -345 172 -3 0 -14 4 -26 8 -11 5 -36 11 -55 14 -19 3 -45
9 -59 12 -43 11 -359 14 -365 4z m113 -604 c12 -3 31 -8 42 -10 36 -8 95 -39
156 -82 63 -44 144 -129 144 -151 0 -7 4 -13 9 -13 23 0 119 -234 135 -330 26
-157 27 -402 1 -535 -5 -25 -16 -71 -39 -167 -3 -9 -9 -25 -15 -36 -6 -11 -7
-22 -4 -26 3 -3 2 -6 -3 -6 -6 0 -16 -16 -24 -35 -8 -19 -17 -35 -22 -35 -4 0
-7 -3 -5 -8 4 -13 -76 -107 -118 -140 -44 -34 -133 -81 -168 -88 -118 -26
-161 -31 -249 -28 -107 3 -204 32 -293 87 -22 13 -99 90 -128 126 -40 50 -107
206 -121 281 -3 14 -10 50 -16 80 -43 214 -29 528 29 675 68 170 130 259 240
343 53 40 136 83 145 75 3 -4 6 -2 6 4 0 5 6 10 13 11 6 0 32 5 57 11 45 10
185 8 228 -3z"/>
<path d="M9422 5237 c-337 -171 -410 -207 -420 -207 -7 0 -12 -4 -12 -9 0 -10
-27 -21 -44 -20 -5 0 -12 -3 -15 -9 -5 -7 -490 -255 -619 -316 -12 -6 -24 -18
-27 -27 -5 -15 2 -30 77 -169 19 -36 52 -96 73 -135 49 -91 101 -188 135 -250
15 -27 49 -90 75 -140 27 -49 75 -139 108 -200 33 -60 78 -144 100 -185 22
-41 50 -94 64 -118 l24 -42 331 0 c295 1 397 7 448 27 8 4 17 7 20 7 22 5 100
43 100 49 0 4 7 7 16 7 25 0 167 151 198 212 16 31 28 60 28 65 0 4 4 15 9 24
16 31 23 84 23 179 -1 144 -8 164 -146 420 -52 96 -114 211 -138 255 -24 44
-56 105 -73 135 -16 30 -37 69 -45 85 -9 17 -45 84 -82 150 -36 66 -79 146
-95 177 -34 66 -45 69 -113 35z"/>
<path d="M7804 3504 c-10 -14 -24 -31 -29 -38 -6 -6 -48 -60 -95 -121 -46 -60
-87 -111 -92 -113 -4 -2 -8 -10 -8 -17 0 -7 -4 -15 -8 -17 -4 -1 -44 -50 -87
-108 -44 -58 -92 -118 -107 -135 -16 -16 -28 -33 -28 -37 0 -5 -8 -16 -17 -26
-10 -10 -27 -31 -38 -46 -11 -16 -29 -40 -41 -55 -12 -14 -61 -78 -109 -141
-49 -63 -95 -121 -102 -129 -15 -15 -10 -22 94 -153 29 -37 53 -70 53 -74 0
-4 8 -14 18 -23 10 -9 29 -32 42 -51 13 -19 27 -37 30 -40 3 -3 49 -61 100
-130 52 -69 103 -134 113 -145 11 -11 33 -40 50 -65 17 -25 36 -50 42 -56 5
-6 21 -25 35 -43 14 -18 45 -59 70 -91 25 -31 66 -85 92 -119 25 -34 48 -58
51 -54 3 4 4 29 3 56 -1 26 2 47 7 47 4 0 5 5 1 11 -4 7 -6 31 -5 55 2 62 2
64 -2 112 -2 24 1 46 7 49 5 4 199 7 430 9 421 2 440 3 464 17 6 5 12 6 12 2
0 -3 9 -1 21 5 11 6 29 13 40 15 62 12 201 123 256 205 35 51 183 299 183 306
0 2 8 13 18 24 9 11 17 24 17 28 1 4 16 32 35 62 19 30 35 57 35 60 0 3 17 31
38 63 20 31 37 60 37 63 0 2 16 28 35 57 19 28 35 57 35 64 0 7 4 13 9 13 5 0
13 10 17 23 4 12 10 24 14 27 4 3 17 23 29 45 11 22 31 57 43 77 79 129 138
232 138 239 0 4 -10 6 -22 3 -13 -3 -44 -8 -70 -13 -68 -11 -1807 -11 -1814 1
-10 15 -11 69 -2 74 5 3 5 11 1 17 -9 15 -10 75 -1 110 3 15 3 27 0 27 -4 0
-7 23 -6 50 2 56 -5 62 -32 24z"/>
</g>
</svg>
